# xmcd
#
# Track frame offsets: 
#        150
#        16282
#        32929
#        43255
#        54833
#        65658
#        80306
#        94623
#        113299
#        126275
#        137826
#        148460
#        160291
#        170757
#        187299
#        203486
#
# Disc length: 2759 seconds
#
# Revision: 0
# Processed by: cddbd v1.5.2PL0 Copyright (c) Steve Scherf et al.
# Submitted via: ExactAudioCopy v1.0b1
#
DISCID=e60ac510
DTITLE=Various Artist - Keep On Struttin: A Tribute To The Meters
DYEAR=2009
DGENRE=Funk
TTITLE0=Syd Jones and The Gay Troubadors - Cardova
TTITLE1=King Herbert and The Knights - Cissy Strut
TTITLE2=Duke Of Burlington - Slot Machine
TTITLE3=Trinidad Tripoli Steel Band - Cissy Strut
TTITLE4=Billy Ball and The Upsetters - Sissy Walk
TTITLE5=Band It - Big Splash
TTITLE6=Dennis The Fox - Flight Of The Phoenix
TTITLE7=Rod Piazza - Cissy Strut
TTITLE8=Ebony Rhythm Band - Soul Heart Transplant
TTITLE9=Joe Bravo - Cissy Strut
TTITLE10=The Soul Seven - The Cissy's Thang
TTITLE11=The Invaders - Look Ka Py Py
TTITLE12=Los Masters - Cissy Strut
TTITLE13=King Herbert and The Knights - Chicken Strut
TTITLE14=Big Band Katouuice - Madrox
TTITLE15=Sacramento Senior High School - Cissy Strut (Outro)
EXTD=
EXTT0=
EXTT1=
EXTT2=
EXTT3=
EXTT4=
EXTT5=
EXTT6=
EXTT7=
EXTT8=
EXTT9=
EXTT10=
EXTT11=
EXTT12=
EXTT13=
EXTT14=
EXTT15=
PLAYORDER=
